<mxfile host="65bd71144e">
    <diagram id="P6R8Z1d3t4YnSlS01BY6" name="Page-1">
        <mxGraphModel dx="980" dy="434" grid="1" gridSize="10" guides="1" tooltips="1" connect="1" arrows="1" fold="1" page="1" pageScale="1" pageWidth="827" pageHeight="1169" math="0" shadow="0">
            <root>
                <mxCell id="0"/>
                <mxCell id="1" parent="0"/>
                <mxCell id="46" value="Users" style="shape=table;startSize=30;container=1;collapsible=1;childLayout=tableLayout;fixedRows=1;rowLines=0;fontStyle=1;align=center;resizeLast=1;strokeColor=#B20000;fillColor=#e51400;fontColor=#ffffff;" vertex="1" parent="1">
                    <mxGeometry x="220" y="95" width="300" height="300" as="geometry"/>
                </mxCell>
                <mxCell id="50" value="" style="shape=tableRow;horizontal=0;startSize=0;swimlaneHead=0;swimlaneBody=0;fillColor=none;collapsible=0;dropTarget=0;points=[[0,0.5],[1,0.5]];portConstraint=eastwest;top=0;left=0;right=0;bottom=1;strokeColor=#FFB366;" vertex="1" parent="46">
                    <mxGeometry y="30" width="300" height="30" as="geometry"/>
                </mxCell>
                <mxCell id="51" value="PK" style="shape=partialRectangle;connectable=0;fillColor=none;top=0;left=0;bottom=0;right=0;fontStyle=1;overflow=hidden;strokeColor=#FFB366;" vertex="1" parent="50">
                    <mxGeometry width="60" height="30" as="geometry">
                        <mxRectangle width="60" height="30" as="alternateBounds"/>
                    </mxGeometry>
                </mxCell>
                <mxCell id="52" value="id    bigint(20)    not null  " style="shape=partialRectangle;connectable=0;fillColor=none;top=0;left=0;bottom=0;right=0;align=left;spacingLeft=6;fontStyle=1;overflow=hidden;strokeColor=#FFB366;" vertex="1" parent="50">
                    <mxGeometry x="60" width="240" height="30" as="geometry">
                        <mxRectangle width="240" height="30" as="alternateBounds"/>
                    </mxGeometry>
                </mxCell>
                <mxCell id="53" value="" style="shape=tableRow;horizontal=0;startSize=0;swimlaneHead=0;swimlaneBody=0;fillColor=none;collapsible=0;dropTarget=0;points=[[0,0.5],[1,0.5]];portConstraint=eastwest;top=0;left=0;right=0;bottom=0;strokeColor=#FFB366;" vertex="1" parent="46">
                    <mxGeometry y="60" width="300" height="30" as="geometry"/>
                </mxCell>
                <mxCell id="54" value="" style="shape=partialRectangle;connectable=0;fillColor=none;top=0;left=0;bottom=0;right=0;editable=1;overflow=hidden;strokeColor=#FFB366;" vertex="1" parent="53">
                    <mxGeometry width="60" height="30" as="geometry">
                        <mxRectangle width="60" height="30" as="alternateBounds"/>
                    </mxGeometry>
                </mxCell>
                <mxCell id="55" value="firstName    varchar(255)    not null" style="shape=partialRectangle;connectable=0;fillColor=none;top=0;left=0;bottom=0;right=0;align=left;spacingLeft=6;overflow=hidden;strokeColor=#FFB366;" vertex="1" parent="53">
                    <mxGeometry x="60" width="240" height="30" as="geometry">
                        <mxRectangle width="240" height="30" as="alternateBounds"/>
                    </mxGeometry>
                </mxCell>
                <mxCell id="56" value="" style="shape=tableRow;horizontal=0;startSize=0;swimlaneHead=0;swimlaneBody=0;fillColor=none;collapsible=0;dropTarget=0;points=[[0,0.5],[1,0.5]];portConstraint=eastwest;top=0;left=0;right=0;bottom=0;strokeColor=#FFB366;" vertex="1" parent="46">
                    <mxGeometry y="90" width="300" height="30" as="geometry"/>
                </mxCell>
                <mxCell id="57" value="" style="shape=partialRectangle;connectable=0;fillColor=none;top=0;left=0;bottom=0;right=0;editable=1;overflow=hidden;strokeColor=#FFB366;" vertex="1" parent="56">
                    <mxGeometry width="60" height="30" as="geometry">
                        <mxRectangle width="60" height="30" as="alternateBounds"/>
                    </mxGeometry>
                </mxCell>
                <mxCell id="58" value="middleNames    varchar(255)    null" style="shape=partialRectangle;connectable=0;fillColor=none;top=0;left=0;bottom=0;right=0;align=left;spacingLeft=6;overflow=hidden;strokeColor=#FFB366;" vertex="1" parent="56">
                    <mxGeometry x="60" width="240" height="30" as="geometry">
                        <mxRectangle width="240" height="30" as="alternateBounds"/>
                    </mxGeometry>
                </mxCell>
                <mxCell id="59" style="shape=tableRow;horizontal=0;startSize=0;swimlaneHead=0;swimlaneBody=0;fillColor=none;collapsible=0;dropTarget=0;points=[[0,0.5],[1,0.5]];portConstraint=eastwest;top=0;left=0;right=0;bottom=0;strokeColor=#FFB366;" vertex="1" parent="46">
                    <mxGeometry y="120" width="300" height="30" as="geometry"/>
                </mxCell>
                <mxCell id="60" style="shape=partialRectangle;connectable=0;fillColor=none;top=0;left=0;bottom=0;right=0;editable=1;overflow=hidden;strokeColor=#FFB366;" vertex="1" parent="59">
                    <mxGeometry width="60" height="30" as="geometry">
                        <mxRectangle width="60" height="30" as="alternateBounds"/>
                    </mxGeometry>
                </mxCell>
                <mxCell id="61" value="lastName    varchar(255)    not null" style="shape=partialRectangle;connectable=0;fillColor=none;top=0;left=0;bottom=0;right=0;align=left;spacingLeft=6;overflow=hidden;strokeColor=#FFB366;" vertex="1" parent="59">
                    <mxGeometry x="60" width="240" height="30" as="geometry">
                        <mxRectangle width="240" height="30" as="alternateBounds"/>
                    </mxGeometry>
                </mxCell>
                <mxCell id="88" style="shape=tableRow;horizontal=0;startSize=0;swimlaneHead=0;swimlaneBody=0;fillColor=none;collapsible=0;dropTarget=0;points=[[0,0.5],[1,0.5]];portConstraint=eastwest;top=0;left=0;right=0;bottom=0;strokeColor=#FFB366;" vertex="1" parent="46">
                    <mxGeometry y="150" width="300" height="30" as="geometry"/>
                </mxCell>
                <mxCell id="89" style="shape=partialRectangle;connectable=0;fillColor=none;top=0;left=0;bottom=0;right=0;editable=1;overflow=hidden;strokeColor=#FFB366;" vertex="1" parent="88">
                    <mxGeometry width="60" height="30" as="geometry">
                        <mxRectangle width="60" height="30" as="alternateBounds"/>
                    </mxGeometry>
                </mxCell>
                <mxCell id="90" value="dateOfBirth    timestamp    not null" style="shape=partialRectangle;connectable=0;fillColor=none;top=0;left=0;bottom=0;right=0;align=left;spacingLeft=6;overflow=hidden;strokeColor=#FFB366;" vertex="1" parent="88">
                    <mxGeometry x="60" width="240" height="30" as="geometry">
                        <mxRectangle width="240" height="30" as="alternateBounds"/>
                    </mxGeometry>
                </mxCell>
                <mxCell id="91" style="shape=tableRow;horizontal=0;startSize=0;swimlaneHead=0;swimlaneBody=0;fillColor=none;collapsible=0;dropTarget=0;points=[[0,0.5],[1,0.5]];portConstraint=eastwest;top=0;left=0;right=0;bottom=0;strokeColor=#FFB366;" vertex="1" parent="46">
                    <mxGeometry y="180" width="300" height="30" as="geometry"/>
                </mxCell>
                <mxCell id="92" style="shape=partialRectangle;connectable=0;fillColor=none;top=0;left=0;bottom=0;right=0;editable=1;overflow=hidden;strokeColor=#FFB366;" vertex="1" parent="91">
                    <mxGeometry width="60" height="30" as="geometry">
                        <mxRectangle width="60" height="30" as="alternateBounds"/>
                    </mxGeometry>
                </mxCell>
                <mxCell id="93" value="email    varchar(255)    not null     unique" style="shape=partialRectangle;connectable=0;fillColor=none;top=0;left=0;bottom=0;right=0;align=left;spacingLeft=6;overflow=hidden;strokeColor=#FFB366;" vertex="1" parent="91">
                    <mxGeometry x="60" width="240" height="30" as="geometry">
                        <mxRectangle width="240" height="30" as="alternateBounds"/>
                    </mxGeometry>
                </mxCell>
                <mxCell id="94" style="shape=tableRow;horizontal=0;startSize=0;swimlaneHead=0;swimlaneBody=0;fillColor=none;collapsible=0;dropTarget=0;points=[[0,0.5],[1,0.5]];portConstraint=eastwest;top=0;left=0;right=0;bottom=0;strokeColor=#FFB366;" vertex="1" parent="46">
                    <mxGeometry y="210" width="300" height="30" as="geometry"/>
                </mxCell>
                <mxCell id="95" style="shape=partialRectangle;connectable=0;fillColor=none;top=0;left=0;bottom=0;right=0;editable=1;overflow=hidden;strokeColor=#FFB366;" vertex="1" parent="94">
                    <mxGeometry width="60" height="30" as="geometry">
                        <mxRectangle width="60" height="30" as="alternateBounds"/>
                    </mxGeometry>
                </mxCell>
                <mxCell id="96" value="password    varchar(255)    null  " style="shape=partialRectangle;connectable=0;fillColor=none;top=0;left=0;bottom=0;right=0;align=left;spacingLeft=6;overflow=hidden;strokeColor=#FFB366;" vertex="1" parent="94">
                    <mxGeometry x="60" width="240" height="30" as="geometry">
                        <mxRectangle width="240" height="30" as="alternateBounds"/>
                    </mxGeometry>
                </mxCell>
                <mxCell id="97" style="shape=tableRow;horizontal=0;startSize=0;swimlaneHead=0;swimlaneBody=0;fillColor=none;collapsible=0;dropTarget=0;points=[[0,0.5],[1,0.5]];portConstraint=eastwest;top=0;left=0;right=0;bottom=0;strokeColor=#FFB366;" vertex="1" parent="46">
                    <mxGeometry y="240" width="300" height="30" as="geometry"/>
                </mxCell>
                <mxCell id="98" style="shape=partialRectangle;connectable=0;fillColor=none;top=0;left=0;bottom=0;right=0;editable=1;overflow=hidden;strokeColor=#FFB366;" vertex="1" parent="97">
                    <mxGeometry width="60" height="30" as="geometry">
                        <mxRectangle width="60" height="30" as="alternateBounds"/>
                    </mxGeometry>
                </mxCell>
                <mxCell id="99" value=" useSignInProvider    boolean    false" style="shape=partialRectangle;connectable=0;fillColor=none;top=0;left=0;bottom=0;right=0;align=left;spacingLeft=6;overflow=hidden;strokeColor=#FFB366;" vertex="1" parent="97">
                    <mxGeometry x="60" width="240" height="30" as="geometry">
                        <mxRectangle width="240" height="30" as="alternateBounds"/>
                    </mxGeometry>
                </mxCell>
                <mxCell id="100" style="shape=tableRow;horizontal=0;startSize=0;swimlaneHead=0;swimlaneBody=0;fillColor=none;collapsible=0;dropTarget=0;points=[[0,0.5],[1,0.5]];portConstraint=eastwest;top=0;left=0;right=0;bottom=0;strokeColor=#FFB366;" vertex="1" parent="46">
                    <mxGeometry y="270" width="300" height="30" as="geometry"/>
                </mxCell>
                <mxCell id="101" style="shape=partialRectangle;connectable=0;fillColor=none;top=0;left=0;bottom=0;right=0;editable=1;overflow=hidden;strokeColor=#FFB366;" vertex="1" parent="100">
                    <mxGeometry width="60" height="30" as="geometry">
                        <mxRectangle width="60" height="30" as="alternateBounds"/>
                    </mxGeometry>
                </mxCell>
                <mxCell id="102" style="shape=partialRectangle;connectable=0;fillColor=none;top=0;left=0;bottom=0;right=0;align=left;spacingLeft=6;overflow=hidden;strokeColor=#FFB366;" vertex="1" parent="100">
                    <mxGeometry x="60" width="240" height="30" as="geometry">
                        <mxRectangle width="240" height="30" as="alternateBounds"/>
                    </mxGeometry>
                </mxCell>
            </root>
        </mxGraphModel>
    </diagram>
</mxfile>